# xmcd
#
# Track frame offsets: 
#        150
#        5166
#        20752
#        36844
#        44252
#        64692
#        71705
#        88072
#        103609
#        121044
#        134852
#        144893
#        165030
#        187169
#
# Disc length: 2733 seconds
#
# Revision: 0
# Processed by: cddbd v1.5.2PL0 Copyright (c) Steve Scherf et al.
# Submitted via: ExactAudioCopyFreeDBPlugin 1.0
#
DISCID=c30aab0e
DTITLE=Outkast - Something Special
DYEAR=2012
DGENRE=Hip-Hop
TTITLE0=Deuces
TTITLE1=Still Lookin 4 U
TTITLE2=Ringtone
TTITLE3=Return of the G´s
TTITLE4=I Love You
TTITLE5=Andre 3000 Something
TTITLE6=Remind Me
TTITLE7=Shine Blockers
TTITLE8=Walk it Out
TTITLE9=Royal Flush
TTITLE10=Dirty South
TTITLE11=Off the Hook
TTITLE12=So Smoked Out
TTITLE13=Happy Valentines Day
EXTD=
EXTT0=
EXTT1=
EXTT2=
EXTT3=
EXTT4=
EXTT5=
EXTT6=
EXTT7=
EXTT8=
EXTT9=
EXTT10=
EXTT11=
EXTT12=
EXTT13=
PLAYORDER=
